<?xml version="1.0" standalone="no"?>
  <!DOCTYPE svg PUBLIC "-//W3C//DTD SVG 1.1//EN" "http://www.w3.org/Graphics/SVG/1.1/DTD/svg11.dtd" >
  <svg>
  <metadata>
  Created by font-carrier
  </metadata>
  <defs>
  <font id="GreekaTYGRA" horiz-adv-x="865" vert-adv-y="865" >
    <font-face
      
      font-family="GreekaTYGRA"
      
      font-weight="400"
      
      font-stretch="normal"
      
      units-per-em="1000"
      
      ascent="734"
      
      descent="2"
      
    />
      <missing-glyph />

      

      
      <glyph glyph-name="uni21" unicode="&#x21;" d="M218 682L158 715L106 782L64 734L10 686L55 638L107 132L122 132L172 624L218 682M213 14L159 40L141 54L111 84L35 10L88-17L106-30L137-61L213 14Z"  horiz-adv-x="231" vert-adv-y="1000"  />

      
      <glyph glyph-name="uni22" unicode="&#x22;" d="M194 822L141 850L117 866L86 897L10 821L76 794L117 758L83 665L107 669L194 822M372 875L318 902L294 919L264 950L189 874L254 846L294 810L261 718L285 722L372 875Z"  horiz-adv-x="383" vert-adv-y="1000"  />

      
      <glyph glyph-name="uni24" unicode="&#x24;" d="M435 142L155 407L361 558L415 585L339 660L309 630L268 606L272 732L282 768L203 768L211 732L205 554L18 415L295 154Q238 118 183 82Q128 46 71 11Q65 7 57.50 3Q50-1 40-6Q35-9 26.50-13.50Q18-18 7-23L81-97L111-69Q120-63 129.50-57Q139-51 150-44Q162-36 171.50-29Q181-22 189-16L184-155L176-191L256-191L247-155L253 22L275 36Q314 61 353.50 87Q393 113 435 142Z"  horiz-adv-x="443" vert-adv-y="1000"  />

      
      <glyph glyph-name="uni25" unicode="&#x25;" d="M311 440L149 640L11 443L169 195L311 440M681 37L523 285L382 40L543-159L681 37M508 554L446 617L431 559L199 15L184-5L247-69L262-11L494 532L508 554M623 38L540-78L440 45L525 191L623 38M251 435L167 289L69 442L151 559L251 435Z"  horiz-adv-x="695" vert-adv-y="1000"  />

      
      <glyph glyph-name="uni26" unicode="&#x26;" d="M536 280L499 353L472 326L253 201L120 348L241 350L277 341L277 420L241 412L122 410L273 551L304 571L249 624L232 595L4 382L227 138L247 108L289 150L354 187L374-124L374-155L444-155L434-118L414 222L501 271L536 280Z"  horiz-adv-x="545" vert-adv-y="1000"  />

      
      <glyph glyph-name="uni27" unicode="&#x27;" d="M191 822L138 850L114 866L83 897L7 821L73 794L114 758L80 665L104 669L191 822Z"  horiz-adv-x="201" vert-adv-y="1000"  />

      
      <glyph glyph-name="uni28" unicode="&#x28;" d="M390-239L390-83Q370-67 350.50-50.50Q331-34 311-17Q285 6 266.50 24Q248 42 236 53Q222 66 211 75.50Q200 85 193 92Q169 115 150.50 131Q132 147 118 158L123 527L298 847L346 897L219 960L203 900L15 556L11 110Q34 90 66 62Q98 34 138-2Q157-19 176-36.50Q195-54 214-71Q232-87 248-102.50Q264-118 281-133Q289-139 390-239Z"  horiz-adv-x="411" vert-adv-y="1000"  />

      
      <glyph glyph-name="uni29" unicode="&#x29;" d="M399 610L197 792Q181 806 164.50 821.50Q148 837 130 854Q127 857 100.50 883Q74 909 20 960L20 804Q40 790 59.50 773.50Q79 757 99 738Q118 720 137 702Q156 684 175 667Q198 647 211.50 633.50Q225 620 232 614Q246 602 260.50 589Q275 576 291 562L288 194L113-126L63-176L192-239L207-179L395 165L399 610Z"  horiz-adv-x="411" vert-adv-y="1000"  />

      
      <glyph glyph-name="uni2b" unicode="&#x2b;" d="M307 219L307 295L273 286L187 286L187 373L195 406L119 406L128 373L128 286L42 286L8 295L8 219L42 228L128 228L128 142L119 107L195 107L187 142L187 228L273 228L307 219Z"  horiz-adv-x="315" vert-adv-y="1000"  />

      
      <glyph glyph-name="uni2c" unicode="&#x2c;" d="M190 74L136 101L112 118L82 148L7 72L71 45L112 9L79-83L103-80L190 74Z"  horiz-adv-x="200" vert-adv-y="1000"  />

      
      <glyph glyph-name="uni2d" unicode="&#x2d;" d="M418 198L418 266L383 257L46 231L16 231L16 164L51 173L389 198L418 198Z"  horiz-adv-x="433" vert-adv-y="1000"  />

      
      <glyph glyph-name="uniad" unicode="&#xad;" d="M418 198L418 266L383 257L46 231L16 231L16 164L51 173L389 198L418 198Z"  horiz-adv-x="433" vert-adv-y="1000"  />

      
      <glyph glyph-name="uni2e" unicode="&#x2e;" d="M187 2L133 28L115 42L85 72L9-1L62-28L81-42L111-73L187 2Z"  horiz-adv-x="197" vert-adv-y="1000"  />

      
      <glyph glyph-name="uni2f" unicode="&#x2f;" d="M310 530L251 590L237 535L17 19L4-1L62-61L77-6L297 510L310 530Z"  horiz-adv-x="313" vert-adv-y="1000"  />

      
      <glyph glyph-name="uni30" unicode="&#x30;" d="M613 346L293 842Q279 818 256 776.50Q233 735 200 678Q162 612 139 572Q116 532 105 514Q81 472 57.50 432.50Q34 393 11 351L335-49L613 346M496 349L329 113L129 361L299 654L496 349M391 390L309 473L281 414L265 395L232 361L313 279L344 337L359 357L391 390Z"  horiz-adv-x="624" vert-adv-y="1000"  />

      
      <glyph glyph-name="uni31" unicode="&#x31;" d="M219-27L206 24L206 748L42 587L1 559L78 482L104 522L104-27L219-27Z"  horiz-adv-x="249" vert-adv-y="1000"  />

      
      <glyph glyph-name="uni32" unicode="&#x32;" d="M634 91L634 209L571 167L211 95L506 557L267 770L146 650L103 622L180 544L209 587L271 648L389 542Q345 472 297.50 397Q250 322 202 246Q154 170 107 95Q60 20 17-49L130-11Q274 16 382.50 39Q491 62 554 74Q564 76 572.50 77Q581 78 587 79Q595 81 606 84Q617 87 634 91Z"  horiz-adv-x="639" vert-adv-y="1000"  />

      
      <glyph glyph-name="uni33" unicode="&#x33;" d="M542 210Q511 227 474 248Q437 269 398.50 291Q360 313 322 335.50Q284 358 251 378L453 554L165 754L135 784L53 695L114 682L309 547L98 365L364 209Q303 167 262.50 139.50Q222 112 195 93.50Q168 75 149.50 62.50Q131 50 114 38L19 38L121-63Q197-11 253 27.50Q309 66 351 94Q393 122 422 141Q451 160 472.50 173Q494 186 510 194.50Q526 203 542 210Z"  horiz-adv-x="545" vert-adv-y="1000"  />

      
      <glyph glyph-name="uni34" unicode="&#x34;" d="M714 350L714 467L654 436Q611 426 581.50 419Q552 412 532 407.50Q512 403 498 400Q484 397 471 394L497 825L13 205L139 226L378 273L358-94L471-94L459-44L471 299L643 342Q661 347 678.50 348.50Q696 350 714 350M385 539L377 370L211 324L385 539Z"  horiz-adv-x="722" vert-adv-y="1000"  />

      
      <glyph glyph-name="uni35" unicode="&#x35;" d="M543 436L211 542L211 647L407 647L459 634L459 748L407 736L123 736L123 478L415 384L263 90L123 160L94 180L12 98L86 81L302-27L543 436Z"  horiz-adv-x="556" vert-adv-y="1000"  />

      
      <glyph glyph-name="uni36" unicode="&#x36;" d="M609 323L366 458L326 497L273 393L323 379L479 294L301 50L121 330L561 724L604 753L527 830L499 787L5 347L297-107L609 323Z"  horiz-adv-x="624" vert-adv-y="1000"  />

      
      <glyph glyph-name="uni37" unicode="&#x37;" d="M526 785L51 719L10 719L10 617L63 631L394 677L166 45L147 17L229-64L248 11L526 785Z"  horiz-adv-x="534" vert-adv-y="1000"  />

      
      <glyph glyph-name="uni38" unicode="&#x38;" d="M700 271L422 413L612 588L375 838L12 522L266 393Q224 355 182.50 318.50Q141 282 99 244Q76 224 44 203Q64 180 85.50 153Q107 126 131 97Q175 42 203.50 6.50Q232-29 251-52.50Q270-76 282-90.50Q294-105 304-117L700 271M550 247L312 14L170 189Q215 226 260.50 268.50Q306 311 351 350L550 247M488 590Q478 582 466 571.50Q454 561 437 545.50Q420 530 395.50 508.50Q371 487 336 456L168 542L369 715L488 590Z"  horiz-adv-x="709" vert-adv-y="1000"  />

      
      <glyph glyph-name="uni39" unicode="&#x39;" d="M617 374L327 830L15 398L257 264L298 223L350 329L300 341L146 427L322 672L502 390L63-1L20-30L96-107L124-66L617 374Z"  horiz-adv-x="622" vert-adv-y="1000"  />

      
      <glyph glyph-name="uni3a" unicode="&#x3a;" d="M211 278L150 309L131 324L95 359L11 275L71 245L92 230L126 194L211 278M211 537L150 566L131 582L95 616L11 532L71 503L92 486L126 453L211 537Z"  horiz-adv-x="222" vert-adv-y="1000"  />

      
      <glyph glyph-name="uni3b" unicode="&#x3b;" d="M211 270L152 298L125 318L92 350L8 269L80 238L125 198L88 95L114 99L211 270M209 525L150 554L130 570L97 602L14 520L72 491L93 475L127 442L209 525Z"  horiz-adv-x="222" vert-adv-y="1000"  />

      
      <glyph glyph-name="uni037E" unicode="&#x037E;" d="M211 270L152 298L125 318L92 350L8 269L80 238L125 198L88 95L114 99L211 270M209 525L150 554L130 570L97 602L14 520L72 491L93 475L127 442L209 525Z"  horiz-adv-x="222" vert-adv-y="1000"  />

      
      <glyph glyph-name="uni3c" unicode="&#x3c;" d="M633 0L633 78L607 78L159 210L554 414L602 426L548 480L528 467L1 194L592 21L633 0Z"  horiz-adv-x="662" vert-adv-y="1000"  />

      
      <glyph glyph-name="uni3d" unicode="&#x3d;" d="M471 170L471 246L436 238L68 226L34 234L34 158L69 166L437 178L471 170M464 307L464 384L429 375L61 362L27 371L27 295L62 304L430 316L464 307Z"  horiz-adv-x="499" vert-adv-y="1000"  />

      
      <glyph glyph-name="uni3e" unicode="&#x3e;" d="M661 273L70 446L28 467L28 389L55 389L504 257L108 53L60 41L114-13L134 0L661 273Z"  horiz-adv-x="662" vert-adv-y="1000"  />

      
      <glyph glyph-name="uni3f" unicode="&#x3f;" d="M472 510L210 777L37 528L7 499L82 424L109 478L221 638L345 513L137 314L226 203L253 150L328 226L297 257L257 306L472 510M346 19L293 46L275 60L244 90L169 14L222-11L241-25L272-56L346 19Z"  horiz-adv-x="479" vert-adv-y="1000"  />

      
      <glyph glyph-name="uni40" unicode="&#x40;" d="M612 285Q588 316 563.50 352Q539 388 514 425Q489 462 464.50 498Q440 534 416 566L51 419L32 40L23 0L108 0L100 39L116 372L392 486L524 293L391 99Q391 119 390.50 134Q390 149 389.50 163Q389 177 388.50 192.50Q388 208 388 228L441 309L394 321L243 407L156-25L333 165Q333 150 334.50 126Q336 102 337.50 75Q339 48 339.50 22Q340-4 337-22Q378 14 412.50 54Q447 94 479.50 134.50Q512 175 544 213.50Q576 252 612 285M347 270L255 164L292 301L347 270Z"  horiz-adv-x="624" vert-adv-y="1000"  />

      
      <glyph glyph-name="uni41" unicode="&#x41;" d="M599-6L567 57L343 746L9-25Q38-11 60.50 0Q83 11 99 19Q139 41 175.50 61.50Q212 82 248 101.50Q284 121 320 141.50Q356 162 395 184Q402 188 410.50 191.50Q419 195 429 197L483 26L491-6L599-6M399 288Q385 280 356 263.50Q327 247 295 229Q263 211 234 195Q205 179 191 172L332 496L399 288Z"  horiz-adv-x="611" vert-adv-y="1000"  />

      
      <glyph glyph-name="uni42" unicode="&#x42;" d="M471 204L318 364L452 506L58 772L31-51Q80-24 135.50 7.50Q191 39 248.50 72Q306 105 363 138.50Q420 172 471 204M330 222L125 107L143 607L316 491L195 365L330 222Z"  horiz-adv-x="475" vert-adv-y="1000"  />

      
      <glyph glyph-name="uni43" unicode="&#x43;" d="M485 100L441 129L144 395L427 597L481 623L405 698L376 669L2 402L381 65L408 23L485 100Z"  horiz-adv-x="511" vert-adv-y="1000"  />

      
      <glyph glyph-name="uni44" unicode="&#x44;" d="M449 398L34 774L34-63L449 398M337 390L121 148L121 579L337 390Z"  horiz-adv-x="449" vert-adv-y="1000"  />

      
      <glyph glyph-name="uni45" unicode="&#x45;" d="M435 657L358 734L330 691L2 384Q75 306 156 216Q237 126 325 30L353-13L430 64L389 91L158 342L345 336L397 324L397 438L345 425L162 414L392 628L435 657Z"  horiz-adv-x="460" vert-adv-y="1000"  />

      
      <glyph glyph-name="uni46" unicode="&#x46;" d="M429 629L429 731L374 717L28 649L49 41L35-9L150-9L138 42L126 355L364 347L416 335L416 449L364 436L128 425L126 576L387 629L429 629Z"  horiz-adv-x="435" vert-adv-y="1000"  />

      
      <glyph glyph-name="uni47" unicode="&#x47;" d="M445 391L345 387Q345 375 342.50 345.50Q340 316 337.50 282.50Q335 249 332.50 217.50Q330 186 330 170L132 374L420 610L439 622L439 753L364 678L1 381L403-32L431 338L445 391Z"  horiz-adv-x="475" vert-adv-y="1000"  />

      
      <glyph glyph-name="uni48" unicode="&#x48;" d="M515 674L401 674L413 624L407 468L149 424L161 612L174 665L72 665L72 621L41 98L27 47L128 47L128 91L143 331L403 374L391 103L378 50L492 50L480 101L502 622L515 674Z"  horiz-adv-x="544" vert-adv-y="1000"  />

      
      <glyph glyph-name="uni49" unicode="&#x49;" d="M166 95L153 148L116 581L116 626L15 626L29 573L65 139L65 95L166 95Z"  horiz-adv-x="182" vert-adv-y="1000"  />

      
      <glyph glyph-name="uni4a" unicode="&#x4a;" d="M280 275L148 707L148 746L30 746L62 684L184 286L59 67L18 26L124-25L136 23L280 275Z"  horiz-adv-x="288" vert-adv-y="1000"  />

      
      <glyph glyph-name="uni4b" unicode="&#x4b;" d="M498 53L457 81L184 384L410 641L452 669L376 746L347 701L126 453L126 650L139 702L25 702L37 650L37 107L25 55L139 55L126 107L126 316L392 19L421-23L498 53Z"  horiz-adv-x="519" vert-adv-y="1000"  />

      
      <glyph glyph-name="uni4c" unicode="&#x4c;" d="M442 76L369 95L122 206L131 674L143 726L29 726L42 676L23 148L331 14L360-5L442 76Z"  horiz-adv-x="444" vert-adv-y="1000"  />

      
      <glyph glyph-name="uni4d" unicode="&#x4d;" d="M686 2L674 57L611 686L389 384L214 763L48 18L17-42L134-42L134-1L244 490L372 211L546 448L585 47L585 2L686 2Z"  horiz-adv-x="708" vert-adv-y="1000"  />

      
      <glyph glyph-name="uni4e" unicode="&#x4e;" d="M498 614L383 614L395 549L388 196L23 821L23 158L15 107L129 107L116 158L111 501L460-100L484 563L498 614Z"  horiz-adv-x="511" vert-adv-y="1000"  />

      
      <glyph glyph-name="uni4f" unicode="&#x4f;" d="M557 401L264 766L10 406L300-45L557 401M451 393L296 120L117 403L268 624L451 393Z"  horiz-adv-x="567" vert-adv-y="1000"  />

      
      <glyph glyph-name="uni50" unicode="&#x50;" d="M361 470L29 721L54 52L42 2L155 2L143 53L133 324L177 276L206 318L361 470M227 462L133 381L129 539L227 462Z"  horiz-adv-x="361" vert-adv-y="1000"  />

      
      <glyph glyph-name="uni51" unicode="&#x51;" d="M542 430Q520 463 499.50 495Q479 527 459 557L375 684Q357 711 337 743.50Q317 776 294 814L7 413L342-39L369-93L443-17L414 12L273 202L339 136L366 190L542 430M434 432L295 242L266 213L117 413L290 658L434 432Z"  horiz-adv-x="555" vert-adv-y="1000"  />

      
      <glyph glyph-name="uni52" unicode="&#x52;" d="M434 60L405 90L234 330L395 486L29 736L52 70L40 19L154 19L141 72L132 326L333 38L360-15L434 60M260 474L131 353L123 568L260 474Z"  horiz-adv-x="440" vert-adv-y="1000"  />

      
      <glyph glyph-name="uni53" unicode="&#x53;" d="M442 221L160 487L366 640L421 667L345 742L315 712L22 496L301 233Q266 210 238 191.50Q210 173 184.50 156.50Q159 140 133 124Q107 108 76 89Q65 82 44.50 71.50Q24 61 9 54L85-20L116 9Q203 63 282 113.50Q361 164 442 221Z"  horiz-adv-x="450" vert-adv-y="1000"  />

      
      <glyph glyph-name="uni54" unicode="&#x54;" d="M456 632L404 613L79 569L40 576L4 479L57 498L166 512L215 36L215-8L316-8L303 45L252 523L380 542L420 536L456 632Z"  horiz-adv-x="470" vert-adv-y="1000"  />

      
      <glyph glyph-name="uni55" unicode="&#x55;" d="M551 682L436 682L450 630L450 326L443 324L282 172L131 672L131 710L13 710L44 648L239 10L441 202L441 177L428 125L544 125L530 175L530 630L551 682Z"  horiz-adv-x="573" vert-adv-y="1000"  />

      
      <glyph glyph-name="uni56" unicode="&#x56;" d="M543 630L461 712L443 638L268 230L113 654L94 730L12 648L31 621L261-9L523 602L543 630Z"  horiz-adv-x="553" vert-adv-y="1000"  />

      
      <glyph glyph-name="uni57" unicode="&#x57;" d="M783 642L701 722L684 648L507 242L406 517L272 218L118 642L99 718L17 636L36 610L266-20L397 295L500 2L764 614L783 642Z"  horiz-adv-x="798" vert-adv-y="1000"  />

      
      <glyph glyph-name="uni58" unicode="&#x58;" d="M538 634L464 710L437 655L274 432L185 581L173 630L67 578L108 537L216 355L41 117L10 86L85 11L113 65L265 273L387 66L399 17L505 70L464 110L322 350L509 604L538 634Z"  horiz-adv-x="560" vert-adv-y="1000"  />

      
      <glyph glyph-name="uni59" unicode="&#x59;" d="M638 677L536 729L524 680L318 416L94 659L66 713L-26 629L21 607L271 342L284 41L271-10L392-10L380 42L368 339L598 636L638 677Z"  horiz-adv-x="603" vert-adv-y="1000"  />

      
      <glyph glyph-name="uni5a" unicode="&#x5a;" d="M624 626L210 741L147 772L147 655L188 655L431 594L6 302L489-29L502-51L583 26L524 50Q485 79 439.50 110Q394 141 346.50 173Q299 205 251 237.50Q203 270 159 302L624 626Z"  horiz-adv-x="614" vert-adv-y="1000"  />

      
      <glyph glyph-name="uni5b" unicode="&#x5b;" d="M225 578L225 653L191 644L48 634L27-120Q50-125 78-128.50Q106-132 154-137L188-146L188-71L152-80L87-71L109 562L191 586L225 578Z"  horiz-adv-x="235" vert-adv-y="1000"  />

      
      <glyph glyph-name="uni5c" unicode="&#x5c;" d="M309-1L297 19L77 535L62 590L3 530L17 510L237-6L251-61L309-1Z"  horiz-adv-x="313" vert-adv-y="1000"  />

      
      <glyph glyph-name="uni5d" unicode="&#x5d;" d="M218-132L192 623L44 631L10 640L10 565L43 573L116 568L147-84L91-91L46-86L46-159L81-150L218-132Z"  horiz-adv-x="245" vert-adv-y="1000"  />

      
      <glyph glyph-name="uni5e" unicode="&#x5e;" d="M272 462L252 482L149 635L38 445L10 418L81 382L89 415L153 524L203 449L222 413L272 462Z"  horiz-adv-x="283" vert-adv-y="1000"  />

      
      <glyph glyph-name="uni5f" unicode="&#x5f;" d="M832 2L832 70L797 65L69 76L32 73L32 6L67 14L803 14L832 2Z"  horiz-adv-x="865" vert-adv-y="1000"  />

      
      <glyph glyph-name="uni60" unicode="&#x60;" d="M188 439L153 470L80 574L63 610L5 560L40 522L164 415L188 439Z"  horiz-adv-x="195" vert-adv-y="1000"  />

      
      <glyph glyph-name="uni61" unicode="&#x61;" d="M599-6L567 57L343 746L9-25Q38-11 60.50 0Q83 11 99 19Q139 41 175.50 61.50Q212 82 248 101.50Q284 121 320 141.50Q356 162 395 184Q402 188 410.50 191.50Q419 195 429 197L483 26L491-6L599-6M399 288Q385 280 356 263.50Q327 247 295 229Q263 211 234 195Q205 179 191 172L332 496L399 288Z"  horiz-adv-x="611" vert-adv-y="1000"  />

      
      <glyph glyph-name="uni62" unicode="&#x62;" d="M471 204L318 364L452 506L58 772L31-51Q80-24 135.50 7.50Q191 39 248.50 72Q306 105 363 138.50Q420 172 471 204M330 222L125 107L143 607L316 491L195 365L330 222Z"  horiz-adv-x="475" vert-adv-y="1000"  />

      
      <glyph glyph-name="uni63" unicode="&#x63;" d="M422 158L378 187L144 395L366 570L420 596L344 671L315 642L2 402L318 123L345 81L422 158Z"  horiz-adv-x="511" vert-adv-y="1000"  />

      
      <glyph glyph-name="uni64" unicode="&#x64;" d="M449 398L34 734L34-13L449 398M317 390L121 198L121 549L317 390Z"  horiz-adv-x="449" vert-adv-y="1000"  />

      
      <glyph glyph-name="uni65" unicode="&#x65;" d="M428 74L428 179L376 176L144 178L138 312L291 315L343 303L343 417L291 404L133 394L126 523L363 565L413 567L399 667L344 650L28 585L49 148L35 98L150 98L376 86L428 74Z"  horiz-adv-x="435" vert-adv-y="1000"  />

      
      <glyph glyph-name="uni66" unicode="&#x66;" d="M429 629L429 731L374 717L28 649L49 41L35-9L150-9L138 42L126 355L364 347L416 335L416 449L364 436L128 425L126 576L387 629L429 629Z"  horiz-adv-x="435" vert-adv-y="1000"  />

      
      <glyph glyph-name="uni67" unicode="&#x67;" d="M445 391L345 387Q345 375 342.50 345.50Q340 316 337.50 282.50Q335 249 332.50 217.50Q330 186 330 170L132 374L420 610L439 622L439 753L364 678L1 381L403-32L431 338L445 391Z"  horiz-adv-x="475" vert-adv-y="1000"  />

      
      <glyph glyph-name="uni68" unicode="&#x68;" d="M515 674L401 674L413 624L407 468L149 424L161 612L174 665L72 665L72 621L41 98L27 47L128 47L128 91L143 331L403 374L391 103L378 50L492 50L480 101L502 622L515 674Z"  horiz-adv-x="544" vert-adv-y="1000"  />

      
      <glyph glyph-name="uni69" unicode="&#x69;" d="M166 95L153 148L116 581L116 626L15 626L29 573L65 139L65 95L166 95Z"  horiz-adv-x="182" vert-adv-y="1000"  />

      
      <glyph glyph-name="uni6a" unicode="&#x6a;" d="M280 275L148 707L148 746L30 746L62 684L184 286L59 67L18 26L124-25L136 23L280 275Z"  horiz-adv-x="288" vert-adv-y="1000"  />

      
      <glyph glyph-name="uni6b" unicode="&#x6b;" d="M498 53L457 81L184 384L410 641L452 669L376 746L347 701L126 453L126 650L139 702L25 702L37 650L37 107L25 55L139 55L126 107L126 316L392 19L421-23L498 53Z"  horiz-adv-x="519" vert-adv-y="1000"  />

      
      <glyph glyph-name="uni6c" unicode="&#x6c;" d="M442 76L369 95L122 206L131 674L143 726L29 726L42 676L23 148L331 14L360-5L442 76Z"  horiz-adv-x="444" vert-adv-y="1000"  />

      
      <glyph glyph-name="uni6d" unicode="&#x6d;" d="M619 177L369 548L227 414L62 567L-151 95L-54 98L85 426L228 291L354 412L518 161L619 177Z"  horiz-adv-x="458" vert-adv-y="1000"  />

      
      <glyph glyph-name="uni6e" unicode="&#x6e;" d="M498 614L383 614L395 549L383 206L23 821L23 158L15 107L129 107L116 158L116 491L460-100L484 563L498 614Z"  horiz-adv-x="511" vert-adv-y="1000"  />

      
      <glyph glyph-name="uni6f" unicode="&#x6f;" d="M557 401L264 736L10 406L300 25L557 401M451 393L296 176L117 403L268 599L451 393Z"  horiz-adv-x="568" vert-adv-y="1000"  />

      
      <glyph glyph-name="uni70" unicode="&#x70;" d="M361 470L29 721L54 52L42 2L155 2L143 53L133 324L177 276L206 318L361 470M227 462L133 381L134 535L227 462Z"  horiz-adv-x="361" vert-adv-y="1000"  />

      
      <glyph glyph-name="uni71" unicode="&#x71;" d="M542 430Q520 463 499.50 495Q479 527 459 557L375 684Q357 711 337 743.50Q317 776 294 814L7 413L342-39L369-93L443-17L414 12L273 202L339 136L366 190L542 430M434 432L295 242L266 213L117 413L290 655L434 432Z"  horiz-adv-x="555" vert-adv-y="1000"  />

      
      <glyph glyph-name="uni72" unicode="&#x72;" d="M434 60L405 90L234 330L395 486L29 736L52 70L40 19L154 19L141 72L132 326L333 38L360-15L434 60M256 474L131 353L124 564L256 474Z"  horiz-adv-x="440" vert-adv-y="1000"  />

      
      <glyph glyph-name="uni73" unicode="&#x73;" d="M442 221L160 487L366 640L421 667L345 742L315 712L22 496L301 233Q266 210 238 191.50Q210 173 184.50 156.50Q159 140 133 124Q107 108 76 89Q65 82 44.50 71.50Q24 61 9 54L85-20L116 9Q203 63 282 113.50Q361 164 442 221Z"  horiz-adv-x="450" vert-adv-y="1000"  />

      
      <glyph glyph-name="uni74" unicode="&#x74;" d="M456 632L404 613L79 569L40 576L4 479L57 498L166 512L215 36L215-8L316-8L303 45L252 523L380 542L420 536L456 632Z"  horiz-adv-x="470" vert-adv-y="1000"  />

      
      <glyph glyph-name="uni75" unicode="&#x75;" d="M551 682L436 682L450 630L450 326L443 324L282 172L131 672L131 710L13 710L44 648L239 10L441 202L441 177L428 125L544 125L530 175L530 630L551 682Z"  horiz-adv-x="573" vert-adv-y="1000"  />

      
      <glyph glyph-name="uni76" unicode="&#x76;" d="M543 630L461 712L443 638L268 230L113 654L94 730L12 648L31 621L261-9L523 602L543 630Z"  horiz-adv-x="553" vert-adv-y="1000"  />

      
      <glyph glyph-name="uni77" unicode="&#x77;" d="M783 642L701 722L684 648L507 242L449 405L529 590L548 618L466 700L449 626L404 525L353 665L334 741L253 660L271 633L353 406L272 218L118 642L99 718L17 636L36 610L266-20L397 286L500 2L764 614L783 642Z"  horiz-adv-x="798" vert-adv-y="1000"  />

      
      <glyph glyph-name="uni78" unicode="&#x78;" d="M538 634L464 710L437 655L274 432L185 581L173 630L67 578L108 537L216 355L41 117L10 86L85 11L113 65L265 273L387 66L399 17L505 70L464 110L322 350L509 604L538 634Z"  horiz-adv-x="560" vert-adv-y="1000"  />

      
      <glyph glyph-name="uni79" unicode="&#x79;" d="M536 677L431 730L419 681L269 424L112 659L84 713L10 638L39 607L219 342L232 41L219-10L332-10L320 42L320 321L496 636L536 677Z"  horiz-adv-x="548" vert-adv-y="1000"  />

      
      <glyph glyph-name="uni7a" unicode="&#x7a;" d="M624 626L210 741L147 772L147 655L188 655L419 590L6 302L489-29L502-51L583 26L524 50Q485 79 440 110Q395 141 348 173Q301 205 253.50 237.50Q206 270 162 302L624 626Z"  horiz-adv-x="635" vert-adv-y="1000"  />

      
      <glyph glyph-name="uni7b" unicode="&#x7b;" d="M188-90L156-74L102-28L124 226L92 250L132 292L82 504L154 554L140 640L20 526L70 309L12 247L70 198L33-54L151-159L188-90Z"  horiz-adv-x="201" vert-adv-y="1000"  />

      
      <glyph glyph-name="uni7c" unicode="&#x7c;" d="M90 610L90 640L22 640L31 605L31-129L19-159L87-159L82-124L90 610Z"  horiz-adv-x="122" vert-adv-y="1000"  />

      
      <glyph glyph-name="uni7d" unicode="&#x7d;" d="M189 247L130 309L181 526L61 640L46 554L119 504L69 292L110 250L78 226L99-28L46-74L13-90L50-159L158-54L137 199L189 247Z"  horiz-adv-x="201" vert-adv-y="1000"  />

      
      <glyph glyph-name="uni7e" unicode="&#x7e;" d="M532 287L479 340L459 320L350 226L171 422L37 247L17 226L67 177L84 212L175 330L344 144L494 272L532 287Z"  horiz-adv-x="540" vert-adv-y="1000"  />

      
      <glyph glyph-name="unia9" unicode="&#xa9;" d="M567 203L539 509L255 724L16 407L119 44L350-43L567 203M522 218L337 9L155 78L65 398L260 658L496 488L522 218M400 206L379 219L231 352L371 453L399 466L361 503L346 489L159 356L348 187L362 167L400 206Z"  horiz-adv-x="585" vert-adv-y="1000"  />

      
      <glyph glyph-name="uniae" unicode="&#xae;" d="M549 130L538 443L265 640L53 513L17 138L341-79L549 130M504 142L335-17L64 155L95 486L262 586L487 428L504 142M402 149L387 164L302 273L383 350L200 475L212 154L205 129L262 129L256 155L256 270L351 138L364 112L402 149M312 345L251 285L248 390L312 345Z"  horiz-adv-x="568" vert-adv-y="1000"  />

      
      <glyph glyph-name="unib0" unicode="&#xb0;" d="M290 478Q290 533 250 573Q212 611 157 611Q102 611 62 572Q23 533 23 478Q23 423 62 384Q102 345 157 345Q211 345 250 384Q290 423 290 478M230 478Q230 461 224 447.50Q218 434 204 421Q181 404 156 404Q125 404 103.50 424.50Q82 445 82 478Q82 512 105.50 532Q129 552 164 552Q195 547 212.50 526Q230 505 230 478Z"  horiz-adv-x="314" vert-adv-y="1000"  />

      
      <glyph glyph-name="unib1" unicode="&#xb1;" d="M318 339L318 416L284 407L198 407L198 493L206 527L130 527L139 493L139 407L53 407L19 416L19 339L53 348L139 348L139 262L130 228L206 228L198 262L198 348L284 348L318 339M318 86L318 162L284 153L53 153L19 162L19 86L53 94L284 94L318 86Z"  horiz-adv-x="338" vert-adv-y="1000"  />

      
      <glyph glyph-name="uni96" unicode="&#x96;" d="M418 198L418 266L383 257L46 231L16 231L16 164L51 173L389 198L418 198Z"  horiz-adv-x="433" vert-adv-y="1000"  />

      
      <glyph glyph-name="uni2013" unicode="&#x2013;" d="M418 198L418 266L383 257L46 231L16 231L16 164L51 173L389 198L418 198Z"  horiz-adv-x="433" vert-adv-y="1000"  />

      
      <glyph glyph-name="uni97" unicode="&#x97;" d="M831 254L831 322L796 317L61 325L31 325L31 258L66 266L802 266L831 254Z"  horiz-adv-x="865" vert-adv-y="1000"  />

      
      <glyph glyph-name="uni2014" unicode="&#x2014;" d="M831 254L831 322L796 317L61 325L31 325L31 258L66 266L802 266L831 254Z"  horiz-adv-x="865" vert-adv-y="1000"  />

      
      <glyph glyph-name="uni91" unicode="&#x91;" d="M192 786L127 814L86 850L120 942L96 938L9 785L62 758L86 741L117 710L192 786Z"  horiz-adv-x="200" vert-adv-y="1000"  />

      
      <glyph glyph-name="uni2018" unicode="&#x2018;" d="M192 786L127 814L86 850L120 942L96 938L9 785L62 758L86 741L117 710L192 786Z"  horiz-adv-x="200" vert-adv-y="1000"  />

      
      <glyph glyph-name="uni92" unicode="&#x92;" d="M191 822L138 850L114 866L83 897L7 821L73 794L114 758L80 665L104 669L191 822Z"  horiz-adv-x="201" vert-adv-y="1000"  />

      
      <glyph glyph-name="uni2019" unicode="&#x2019;" d="M191 822L138 850L114 866L83 897L7 821L73 794L114 758L80 665L104 669L191 822Z"  horiz-adv-x="201" vert-adv-y="1000"  />

      
      <glyph glyph-name="uni93" unicode="&#x93;" d="M196 780L131 808L91 844L124 936L100 933L12 779L67 751L91 734L120 705L196 780M374 833L309 861L268 897L302 989L278 986L190 832L244 804L268 787L298 758L374 833Z"  horiz-adv-x="384" vert-adv-y="1000"  />

      
      <glyph glyph-name="uni201C" unicode="&#x201C;" d="M196 780L131 808L91 844L124 936L100 933L12 779L67 751L91 734L120 705L196 780M374 833L309 861L268 897L302 989L278 986L190 832L244 804L268 787L298 758L374 833Z"  horiz-adv-x="384" vert-adv-y="1000"  />

      
      <glyph glyph-name="uni94" unicode="&#x94;" d="M194 822L141 850L117 866L86 897L10 821L76 794L117 758L83 665L107 669L194 822M372 875L318 902L294 919L264 950L189 874L254 846L294 810L261 718L285 722L372 875Z"  horiz-adv-x="383" vert-adv-y="1000"  />

      
      <glyph glyph-name="uni201D" unicode="&#x201D;" d="M194 822L141 850L117 866L86 897L10 821L76 794L117 758L83 665L107 669L194 822M372 875L318 902L294 919L264 950L189 874L254 846L294 810L261 718L285 722L372 875Z"  horiz-adv-x="383" vert-adv-y="1000"  />

      
      <glyph glyph-name="uni85" unicode="&#x85;" d="M152 58L114 78L100 87L78 110L23 54L62 35L75 25L97 3L152 58M360 47L321 67L307 78L285 99L230 45L269 25L283 14L305-6L360 47M564 46L525 65L512 75L490 98L435 42L474 23L487 13L509-9L564 46Z"  horiz-adv-x="587" vert-adv-y="1000"  />

      
      <glyph glyph-name="uni2026" unicode="&#x2026;" d="M152 58L114 78L100 87L78 110L23 54L62 35L75 25L97 3L152 58M360 47L321 67L307 78L285 99L230 45L269 25L283 14L305-6L360 47M564 46L525 65L512 75L490 98L435 42L474 23L487 13L509-9L564 46Z"  horiz-adv-x="587" vert-adv-y="1000"  />

      
      <glyph glyph-name="uni99" unicode="&#x99;" d="M733 161L725 196L685 601L541 408L428 653L321 170L301 131L377 131L377 158L447 475L529 296L642 448L668 189L668 161L733 161M392 554L349 640L316 606L52 456L12 446L55 359L88 393L177 443L200 72L200 36L283 36L272 79L247 483L352 543L392 554Z"  horiz-adv-x="750" vert-adv-y="1000"  />

      
      <glyph glyph-name="uni2122" unicode="&#x2122;" d="M733 161L725 196L685 601L541 408L428 653L321 170L301 131L377 131L377 158L447 475L529 296L642 448L668 189L668 161L733 161M392 554L349 640L316 606L52 456L12 446L55 359L88 393L177 443L200 72L200 36L283 36L272 79L247 483L352 543L392 554Z"  horiz-adv-x="750" vert-adv-y="1000"  />

      
      <glyph glyph-name="unia6" unicode="&#xa6;" d="M112-159L103-109L103 162L112 211L29 211L38 162L38-109L29-159L112-159M104 279L94 329L94 590L104 640L21 640L30 590L30 329L21 279L104 279Z"  horiz-adv-x="136" vert-adv-y="1000"  />

      
      <glyph glyph-name="uni2219" unicode="&#x2219;" d="M187 370L133 396L115 410L85 440L9 366L62 339L81 325L111 294L187 370Z"  horiz-adv-x="197" vert-adv-y="1000"  />

      
      <glyph glyph-name="unic0" unicode="&#xc0;" d="M599-6L567 57L343 746L9-25Q38-11 60.50 0Q83 11 99 19Q139 41 175.50 61.50Q212 82 248 101.50Q284 121 320 141.50Q356 162 395 184Q402 188 410.50 191.50Q419 195 429 197L483 26L491-6L599-6M399 288Q385 280 356 263.50Q327 247 295 229Q263 211 234 195Q205 179 191 172L332 496L399 288Z"  horiz-adv-x="611" vert-adv-y="1000"  />

      
      <glyph glyph-name="uni0410" unicode="&#x0410;" d="M599-6L567 57L343 746L9-25Q38-11 60.50 0Q83 11 99 19Q139 41 175.50 61.50Q212 82 248 101.50Q284 121 320 141.50Q356 162 395 184Q402 188 410.50 191.50Q419 195 429 197L483 26L491-6L599-6M399 288Q385 280 356 263.50Q327 247 295 229Q263 211 234 195Q205 179 191 172L332 496L399 288Z"  horiz-adv-x="611" vert-adv-y="1000"  />

      
      <glyph glyph-name="unic1" unicode="&#xc1;" d="M501 260L233 465L169 395L131 571L291 621L359 640L333 727L264 708L17 641L160-49L501 260M354 254L222 136L173 378L354 254Z"  horiz-adv-x="487" vert-adv-y="1000"  />

      
      <glyph glyph-name="uni0411" unicode="&#x0411;" d="M501 260L233 465L169 395L131 571L291 621L359 640L333 727L264 708L17 641L160-49L501 260M354 254L222 136L173 378L354 254Z"  horiz-adv-x="487" vert-adv-y="1000"  />

      
      <glyph glyph-name="unic2" unicode="&#xc2;" d="M471 204L318 364L452 506L58 772L31-51Q80-24 135.50 7.50Q191 39 248.50 72Q306 105 363 138.50Q420 172 471 204M330 222L125 107L143 607L316 491L195 365L330 222Z"  horiz-adv-x="475" vert-adv-y="1000"  />

      
      <glyph glyph-name="uni0412" unicode="&#x0412;" d="M471 204L318 364L452 506L58 772L31-51Q80-24 135.50 7.50Q191 39 248.50 72Q306 105 363 138.50Q420 172 471 204M330 222L125 107L143 607L316 491L195 365L330 222Z"  horiz-adv-x="475" vert-adv-y="1000"  />

      
      <glyph glyph-name="unic3" unicode="&#xc3;" d="M441 636L380 731L344 695L32 478L49 41L35-9L152-9L140 42L128 434L393 620L441 636Z"  horiz-adv-x="433" vert-adv-y="1000"  />

      
      <glyph glyph-name="uni0413" unicode="&#x0413;" d="M441 636L380 731L344 695L32 478L49 41L35-9L152-9L140 42L128 434L393 620L441 636Z"  horiz-adv-x="433" vert-adv-y="1000"  />

      
      <glyph glyph-name="unic4" unicode="&#xc4;" d="M449 398L34 734L34-13L449 398M317 390L121 193L121 554L317 390Z"  horiz-adv-x="449" vert-adv-y="1000"  />

      
      <glyph glyph-name="uni0414" unicode="&#x0414;" d="M449 398L34 734L34-13L449 398M317 390L121 193L121 554L317 390Z"  horiz-adv-x="449" vert-adv-y="1000"  />

      
      <glyph glyph-name="unic5" unicode="&#xc5;" d="M435 657L358 734L330 691L2 384Q75 306 156 216Q237 126 325 30L353-13L430 64L389 91L156 342L345 336L397 324L397 438L345 425L160 414L392 628L435 657Z"  horiz-adv-x="460" vert-adv-y="1000"  />

      
      <glyph glyph-name="uni0415" unicode="&#x0415;" d="M435 657L358 734L330 691L2 384Q75 306 156 216Q237 126 325 30L353-13L430 64L389 91L156 342L345 336L397 324L397 438L345 425L160 414L392 628L435 657Z"  horiz-adv-x="460" vert-adv-y="1000"  />

      
      <glyph glyph-name="unic6" unicode="&#xc6;" d="M695 674L581 674L593 624L584 412L414 412L422 622L435 674L321 674L333 624L324 411L141 411L153 612L166 665L64 665L64 621L33 98L19 47L120 47L120 91L136 333L321 333L311 103L298 50L412 50L400 101L410 333L580 333L571 103L558 50L672 50L660 101L682 622L695 674Z"  horiz-adv-x="714" vert-adv-y="1000"  />

      
      <glyph glyph-name="uni0416" unicode="&#x0416;" d="M695 674L581 674L593 624L584 412L414 412L422 622L435 674L321 674L333 624L324 411L141 411L153 612L166 665L64 665L64 621L33 98L19 47L120 47L120 91L136 333L321 333L311 103L298 50L412 50L400 101L410 333L580 333L571 103L558 50L672 50L660 101L682 622L695 674Z"  horiz-adv-x="714" vert-adv-y="1000"  />

      
      <glyph glyph-name="unic7" unicode="&#xc7;" d="M442 141Q427 148 406.50 158.50Q386 169 375 176L198 318L440 507L381 537L126 710L96 740L24 660L79 633L283 501L60 318L277 138Q277 138 257.50 125.50Q238 113 208 94Q178 75 142.50 53Q107 31 76 12Q65 5 44.50-5.50Q24-16 9-23L85-97L116-68Q203-14 282 35Q361 84 442 141Z"  horiz-adv-x="450" vert-adv-y="1000"  />

      
      <glyph glyph-name="uni0417" unicode="&#x0417;" d="M442 141Q427 148 406.50 158.50Q386 169 375 176L198 318L440 507L381 537L126 710L96 740L24 660L79 633L283 501L60 318L277 138Q277 138 257.50 125.50Q238 113 208 94Q178 75 142.50 53Q107 31 76 12Q65 5 44.50-5.50Q24-16 9-23L85-97L116-68Q203-14 282 35Q361 84 442 141Z"  horiz-adv-x="450" vert-adv-y="1000"  />

      
      <glyph glyph-name="unic8" unicode="&#xc8;" d="M515 674L401 674L413 624L407 468L149 414L161 612L174 665L72 665L72 621L41 98L27 47L128 47L128 91L144 335L404 388L391 103L378 50L492 50L480 101L502 622L515 674Z"  horiz-adv-x="544" vert-adv-y="1000"  />

      
      <glyph glyph-name="uni0418" unicode="&#x0418;" d="M515 674L401 674L413 624L407 468L149 414L161 612L174 665L72 665L72 621L41 98L27 47L128 47L128 91L144 335L404 388L391 103L378 50L492 50L480 101L502 622L515 674Z"  horiz-adv-x="544" vert-adv-y="1000"  />

      
      <glyph glyph-name="unic9" unicode="&#xc9;" d="M515 674L401 674L413 624L407 468L149 414L161 612L174 665L72 665L72 621L41 98L27 47L128 47L128 91L144 335L404 388L391 103L378 50L492 50L480 101L502 622L515 674M377 768L318 797L298 813L265 845L193 781L251 752L272 736L306 703L377 768Z"  horiz-adv-x="544" vert-adv-y="1000"  />

      
      <glyph glyph-name="uni0419" unicode="&#x0419;" d="M515 674L401 674L413 624L407 468L149 414L161 612L174 665L72 665L72 621L41 98L27 47L128 47L128 91L144 335L404 388L391 103L378 50L492 50L480 101L502 622L515 674M377 768L318 797L298 813L265 845L193 781L251 752L272 736L306 703L377 768Z"  horiz-adv-x="544" vert-adv-y="1000"  />

      
      <glyph glyph-name="unica" unicode="&#xca;" d="M531 624L458 707L429 668L126 406L126 640L139 692L25 692L37 640L37 107L25 55L139 55L126 107L126 381L423 91L450 49L527 125L483 154L235 395L477 598L531 624Z"  horiz-adv-x="519" vert-adv-y="1000"  />

      
      <glyph glyph-name="uni041A" unicode="&#x041A;" d="M531 624L458 707L429 668L126 406L126 640L139 692L25 692L37 640L37 107L25 55L139 55L126 107L126 381L423 91L450 49L527 125L483 154L235 395L477 598L531 624Z"  horiz-adv-x="519" vert-adv-y="1000"  />

      
      <glyph glyph-name="unicb" unicode="&#xcb;" d="M599-6L567 57L343 746L9-25L125-8L191 172L332 496L483 26L491-6L599-6Z"  horiz-adv-x="611" vert-adv-y="1000"  />

      
      <glyph glyph-name="uni041B" unicode="&#x041B;" d="M599-6L567 57L343 746L9-25L125-8L191 172L332 496L483 26L491-6L599-6Z"  horiz-adv-x="611" vert-adv-y="1000"  />

      
      <glyph glyph-name="unicc" unicode="&#xcc;" d="M687 2L675 57L612 686L390 384L215 763L49 18L18-42L135-42L135-1L245 490L373 211L547 448L586 47L586 2L687 2Z"  horiz-adv-x="709" vert-adv-y="1000"  />

      
      <glyph glyph-name="uni041C" unicode="&#x041C;" d="M687 2L675 57L612 686L390 384L215 763L49 18L18-42L135-42L135-1L245 490L373 211L547 448L586 47L586 2L687 2Z"  horiz-adv-x="709" vert-adv-y="1000"  />

      
      <glyph glyph-name="unicd" unicode="&#xcd;" d="M515 674L401 674L413 624L406 443L154 476L161 612L174 665L72 665L72 621L41 98L27 47L128 47L128 91L148 388L402 354L391 103L378 50L492 50L480 101L502 622L515 674Z"  horiz-adv-x="544" vert-adv-y="1000"  />

      
      <glyph glyph-name="uni041D" unicode="&#x041D;" d="M515 674L401 674L413 624L406 443L154 476L161 612L174 665L72 665L72 621L41 98L27 47L128 47L128 91L148 388L402 354L391 103L378 50L492 50L480 101L502 622L515 674Z"  horiz-adv-x="544" vert-adv-y="1000"  />

      
      <glyph glyph-name="unice" unicode="&#xce;" d="M557 401L264 766L10 406L300-45L557 401M451 393L296 126L117 403L268 619L451 393Z"  horiz-adv-x="568" vert-adv-y="1000"  />

      
      <glyph glyph-name="uni041E" unicode="&#x041E;" d="M557 401L264 766L10 406L300-45L557 401M451 393L296 126L117 403L268 619L451 393Z"  horiz-adv-x="568" vert-adv-y="1000"  />

      
      <glyph glyph-name="unicf" unicode="&#xcf;" d="M518 688L72 665L72 621L41 98L27 47L128 47L128 91L157 590L416 603L391 103L378 50L492 50L480 101L502 622L518 688Z"  horiz-adv-x="546" vert-adv-y="1000"  />

      
      <glyph glyph-name="uni041F" unicode="&#x041F;" d="M518 688L72 665L72 621L41 98L27 47L128 47L128 91L157 590L416 603L391 103L378 50L492 50L480 101L502 622L518 688Z"  horiz-adv-x="546" vert-adv-y="1000"  />

      
      <glyph glyph-name="unid0" unicode="&#xd0;" d="M372 444L30 721L55 52L43 2L156 2L144 53L134 278L178 230L207 272L372 444M238 436L134 335L127 524L238 436Z"  horiz-adv-x="362" vert-adv-y="1000"  />

      
      <glyph glyph-name="uni0420" unicode="&#x0420;" d="M372 444L30 721L55 52L43 2L156 2L144 53L134 278L178 230L207 272L372 444M238 436L134 335L127 524L238 436Z"  horiz-adv-x="362" vert-adv-y="1000"  />

      
      <glyph glyph-name="unid1" unicode="&#xd1;" d="M485 100L441 129L144 395L427 597L481 623L405 698L376 669L2 402L381 65L408 23L485 100Z"  horiz-adv-x="511" vert-adv-y="1000"  />

      
      <glyph glyph-name="uni0421" unicode="&#x0421;" d="M485 100L441 129L144 395L427 597L481 623L405 698L376 669L2 402L381 65L408 23L485 100Z"  horiz-adv-x="511" vert-adv-y="1000"  />

      
      <glyph glyph-name="unid2" unicode="&#xd2;" d="M731 636L390 721L14 622L47 545L381 634L696 558L731 636M693 487L580 487L592 437L573 103L560 50L673 50L661 101L680 435L693 487M433 487L321 487L333 437L314 103L301 50L413 50L401 101L420 435L433 487M164 478L63 478L63 434L35 98L21 47L121 47L121 91L151 425L164 478Z"  horiz-adv-x="741" vert-adv-y="1000"  />

      
      <glyph glyph-name="uni0422" unicode="&#x0422;" d="M731 636L390 721L14 622L47 545L381 634L696 558L731 636M693 487L580 487L592 437L573 103L560 50L673 50L661 101L680 435L693 487M433 487L321 487L333 437L314 103L301 50L413 50L401 101L420 435L433 487M164 478L63 478L63 434L35 98L21 47L121 47L121 91L151 425L164 478Z"  horiz-adv-x="741" vert-adv-y="1000"  />

      
      <glyph glyph-name="unid3" unicode="&#xd3;" d="M546 677L441 730L429 681L291 424L122 659L94 713L20 638L49 607L241 342L110 105L74 60L195 31L195 82L506 636L546 677Z"  horiz-adv-x="551" vert-adv-y="1000"  />

      
      <glyph glyph-name="uni0423" unicode="&#x0423;" d="M546 677L441 730L429 681L291 424L122 659L94 713L20 638L49 607L241 342L110 105L74 60L195 31L195 82L506 636L546 677Z"  horiz-adv-x="551" vert-adv-y="1000"  />

      
      <glyph glyph-name="unid4" unicode="&#xd4;" d="M744 455L346 703L-12 368L320 141L324 55L310 2L438-18L423 52L415 129L744 455M605 437L409 237L395 561L605 437M318 246L123 385L308 543L318 246Z"  horiz-adv-x="729" vert-adv-y="1000"  />

      
      <glyph glyph-name="uni0424" unicode="&#x0424;" d="M744 455L346 703L-12 368L320 141L324 55L310 2L438-18L423 52L415 129L744 455M605 437L409 237L395 561L605 437M318 246L123 385L308 543L318 246Z"  horiz-adv-x="729" vert-adv-y="1000"  />

      
      <glyph glyph-name="unid5" unicode="&#xd5;" d="M538 634L464 710L437 655L274 432L185 581L173 630L67 578L108 537L216 355L41 117L10 86L85 11L113 65L265 273L387 66L399 17L505 70L464 110L322 350L509 604L538 634Z"  horiz-adv-x="560" vert-adv-y="1000"  />

      
      <glyph glyph-name="uni0425" unicode="&#x0425;" d="M538 634L464 710L437 655L274 432L185 581L173 630L67 578L108 537L216 355L41 117L10 86L85 11L113 65L265 273L387 66L399 17L505 70L464 110L322 350L509 604L538 634Z"  horiz-adv-x="560" vert-adv-y="1000"  />

      
      <glyph glyph-name="unid6" unicode="&#xd6;" d="M596-61L586 0L595 132L417 134L415 185L432 622L445 674L331 674L343 624L323 134L133 132L163 612L176 665L74 665L74 621L43 98L31 50L503 50L503-6L498-58L596-61Z"  horiz-adv-x="611" vert-adv-y="1000"  />

      
      <glyph glyph-name="uni0426" unicode="&#x0426;" d="M596-61L586 0L595 132L417 134L415 185L432 622L445 674L331 674L343 624L323 134L133 132L163 612L176 665L74 665L74 621L43 98L31 50L503 50L503-6L498-58L596-61Z"  horiz-adv-x="611" vert-adv-y="1000"  />

      
      <glyph glyph-name="unid7" unicode="&#xd7;" d="M491 674L377 674L389 624L370 426L153 411L106 624L119 677L2 677L17 633L80 318L222 327L214 103L201 50L321 50L309 101L315 340L453 346L478 622L491 674Z"  horiz-adv-x="504" vert-adv-y="1000"  />

      
      <glyph glyph-name="uni0427" unicode="&#x0427;" d="M491 674L377 674L389 624L370 426L153 411L106 624L119 677L2 677L17 633L80 318L222 327L214 103L201 50L321 50L309 101L315 340L453 346L478 622L491 674Z"  horiz-adv-x="504" vert-adv-y="1000"  />

      
      <glyph glyph-name="unid8" unicode="&#xd8;" d="M635 674L521 674L533 624L493 130L360 130L373 439L386 491L272 491L284 441L271 130L123 130L153 612L166 665L62 665L64 613L33 98L21 50L495 51L587 48L582 109L622 622L635 674Z"  horiz-adv-x="668" vert-adv-y="1000"  />

      
      <glyph glyph-name="uni0428" unicode="&#x0428;" d="M635 674L521 674L533 624L493 130L360 130L373 439L386 491L272 491L284 441L271 130L123 130L153 612L166 665L62 665L64 613L33 98L21 50L495 51L587 48L582 109L622 622L635 674Z"  horiz-adv-x="668" vert-adv-y="1000"  />

      
      <glyph glyph-name="unid9" unicode="&#xd9;" d="M716-61L706 0L715 130L582 130L622 622L635 674L521 674L533 624L493 130L360 130L374 403L387 455L273 455L285 405L271 130L123 130L153 612L166 665L62 665L64 613L33 98L21 50L623 52L623-6L618-58L716-61Z"  horiz-adv-x="725" vert-adv-y="1000"  />

      
      <glyph glyph-name="uni0429" unicode="&#x0429;" d="M716-61L706 0L715 130L582 130L622 622L635 674L521 674L533 624L493 130L360 130L374 403L387 455L273 455L285 405L271 130L123 130L153 612L166 665L62 665L64 613L33 98L21 50L623 52L623-6L618-58L716-61Z"  horiz-adv-x="725" vert-adv-y="1000"  />

      
      <glyph glyph-name="unida" unicode="&#xda;" d="M531 255L336 433L307 475L263 427L272 669L284 720L-36 720L-30 630L33 645L180 644L158 1L531 255M394 263L255 168L264 370L394 263Z"  horiz-adv-x="557" vert-adv-y="1000"  />

      
      <glyph glyph-name="uni042A" unicode="&#x042A;" d="M531 255L336 433L307 475L263 427L272 669L284 720L-36 720L-30 630L33 645L180 644L158 1L531 255M394 263L255 168L264 370L394 263Z"  horiz-adv-x="557" vert-adv-y="1000"  />

      
      <glyph glyph-name="unidb" unicode="&#xdb;" d="M400 252L216 433L187 475L143 427L152 669L164 720L51 720L63 670L38 1L400 252M538 121L523 174L523 607L530 652L422 652L436 599L436 165L427 121L538 121M272 263L133 168L142 370L272 263Z"  horiz-adv-x="576" vert-adv-y="1000"  />

      
      <glyph glyph-name="uni042B" unicode="&#x042B;" d="M400 252L216 433L187 475L143 427L152 669L164 720L51 720L63 670L38 1L400 252M538 121L523 174L523 607L530 652L422 652L436 599L436 165L427 121L538 121M272 263L133 168L142 370L272 263Z"  horiz-adv-x="576" vert-adv-y="1000"  />

      
      <glyph glyph-name="unidc" unicode="&#xdc;" d="M402 252L219 453L190 495L146 447L154 669L166 720L53 720L63 661L40 1L402 252M276 263L137 168L147 390L276 263Z"  horiz-adv-x="415" vert-adv-y="1000"  />

      
      <glyph glyph-name="uni042C" unicode="&#x042C;" d="M402 252L219 453L190 495L146 447L154 669L166 720L53 720L63 661L40 1L402 252M276 263L137 168L147 390L276 263Z"  horiz-adv-x="415" vert-adv-y="1000"  />

      
      <glyph glyph-name="unidd" unicode="&#xdd;" d="M446 370L219 707L197 756L99 689L155 645L308 419L63 425L11 438L11 324L63 336L322 341L140 67L99 26L207-25L219 23L446 370Z"  horiz-adv-x="455" vert-adv-y="1000"  />

      
      <glyph glyph-name="uni042D" unicode="&#x042D;" d="M446 370L219 707L197 756L99 689L155 645L308 419L63 425L11 438L11 324L63 336L322 341L140 67L99 26L207-25L219 23L446 370Z"  horiz-adv-x="455" vert-adv-y="1000"  />

      
      <glyph glyph-name="unide" unicode="&#xde;" d="M717 401L424 766L197 444L129 444L116 581L116 626L15 626L29 573L65 139L65 95L166 95L153 148L134 366L195 366L460 23L717 401M611 393L456 166L277 403L428 619L611 393Z"  horiz-adv-x="728" vert-adv-y="1000"  />

      
      <glyph glyph-name="uni042E" unicode="&#x042E;" d="M717 401L424 766L197 444L129 444L116 581L116 626L15 626L29 573L65 139L65 95L166 95L153 148L134 366L195 366L460 23L717 401M611 393L456 166L277 403L428 619L611 393Z"  horiz-adv-x="728" vert-adv-y="1000"  />

      
      <glyph glyph-name="unidf" unicode="&#xdf;" d="M482-18L467 52L450 736L409 693L38 368L172 276L-4 32L-33 2L94-26L113 27L244 228L370 141L368 55L354 2L482-18M370 252L190 377L361 543L370 252Z"  horiz-adv-x="522" vert-adv-y="1000"  />

      
      <glyph glyph-name="uni042F" unicode="&#x042F;" d="M482-18L467 52L450 736L409 693L38 368L172 276L-4 32L-33 2L94-26L113 27L244 228L370 141L368 55L354 2L482-18M370 252L190 377L361 543L370 252Z"  horiz-adv-x="522" vert-adv-y="1000"  />

      
      <glyph glyph-name="unie0" unicode="&#xe0;" d="M599-6L567 57L343 746L9-25Q38-11 60.50 0Q83 11 99 19Q139 41 175.50 61.50Q212 82 248 101.50Q284 121 320 141.50Q356 162 395 184Q402 188 410.50 191.50Q419 195 429 197L483 26L491-6L599-6M399 288Q385 280 356 263.50Q327 247 295 229Q263 211 234 195Q205 179 191 172L332 496L399 288Z"  horiz-adv-x="611" vert-adv-y="1000"  />

      
      <glyph glyph-name="uni0430" unicode="&#x0430;" d="M599-6L567 57L343 746L9-25Q38-11 60.50 0Q83 11 99 19Q139 41 175.50 61.50Q212 82 248 101.50Q284 121 320 141.50Q356 162 395 184Q402 188 410.50 191.50Q419 195 429 197L483 26L491-6L599-6M399 288Q385 280 356 263.50Q327 247 295 229Q263 211 234 195Q205 179 191 172L332 496L399 288Z"  horiz-adv-x="611" vert-adv-y="1000"  />

      
      <glyph glyph-name="unie1" unicode="&#xe1;" d="M501 260L233 465L169 395L134 573L328 630L396 639L370 744L301 717L17 641L160-49L501 260M354 254L222 136L173 378L354 254Z"  horiz-adv-x="487" vert-adv-y="1000"  />

      
      <glyph glyph-name="uni0431" unicode="&#x0431;" d="M501 260L233 465L169 395L134 573L328 630L396 639L370 744L301 717L17 641L160-49L501 260M354 254L222 136L173 378L354 254Z"  horiz-adv-x="487" vert-adv-y="1000"  />

      
      <glyph glyph-name="unie2" unicode="&#xe2;" d="M471 204L318 364L452 506L58 772L31-51L471 204M330 222L125 107L143 607L316 491L195 365L330 222Z"  horiz-adv-x="475" vert-adv-y="1000"  />

      
      <glyph glyph-name="uni0432" unicode="&#x0432;" d="M471 204L318 364L452 506L58 772L31-51L471 204M330 222L125 107L143 607L316 491L195 365L330 222Z"  horiz-adv-x="475" vert-adv-y="1000"  />

      
      <glyph glyph-name="unie3" unicode="&#xe3;" d="M388 543L373 649L314 619L31 518L47 111L33 61L156 61L144 112L126 449L329 526L388 543Z"  horiz-adv-x="357" vert-adv-y="1000"  />

      
      <glyph glyph-name="uni0433" unicode="&#x0433;" d="M388 543L373 649L314 619L31 518L47 111L33 61L156 61L144 112L126 449L329 526L388 543Z"  horiz-adv-x="357" vert-adv-y="1000"  />

      
      <glyph glyph-name="unie4" unicode="&#xe4;" d="M554 51L184 644L-3 51L554 51M388 138L123 138L207 425L388 138Z"  horiz-adv-x="512" vert-adv-y="1000"  />

      
      <glyph glyph-name="uni0434" unicode="&#x0434;" d="M554 51L184 644L-3 51L554 51M388 138L123 138L207 425L388 138Z"  horiz-adv-x="512" vert-adv-y="1000"  />

      
      <glyph glyph-name="unie5" unicode="&#xe5;" d="M428 74L428 179L376 176L142 178L136 312L291 315L343 303L343 417L291 404L131 394L124 523L363 565L413 567L399 667L344 650L28 585L49 148L35 98L150 98L376 86L428 74Z"  horiz-adv-x="435" vert-adv-y="1000"  />

      
      <glyph glyph-name="uni0435" unicode="&#x0435;" d="M428 74L428 179L376 176L142 178L136 312L291 315L343 303L343 417L291 404L131 394L124 523L363 565L413 567L399 667L344 650L28 585L49 148L35 98L150 98L376 86L428 74Z"  horiz-adv-x="435" vert-adv-y="1000"  />

      
      <glyph glyph-name="unie6" unicode="&#xe6;" d="M678 612L602 689L573 644L384 443L384 650L397 702L286 702L299 650L299 443L148 621L119 666L43 589L85 561L241 384L60 207L19 179L96 103L125 145L299 326L299 107L286 55L397 55L384 107L384 326L560 149L589 107L666 183L625 211L442 384L636 584L678 612Z"  horiz-adv-x="696" vert-adv-y="1000"  />

      
      <glyph glyph-name="uni0436" unicode="&#x0436;" d="M678 612L602 689L573 644L384 443L384 650L397 702L286 702L299 650L299 443L148 621L119 666L43 589L85 561L241 384L60 207L19 179L96 103L125 145L299 326L299 107L286 55L397 55L384 107L384 326L560 149L589 107L666 183L625 211L442 384L636 584L678 612Z"  horiz-adv-x="696" vert-adv-y="1000"  />

      
      <glyph glyph-name="unie7" unicode="&#xe7;" d="M430 204L277 364L411 506L40 756L24 655L275 491L154 365L289 222L21 53L18-34L430 204Z"  horiz-adv-x="458" vert-adv-y="1000"  />

      
      <glyph glyph-name="uni0437" unicode="&#x0437;" d="M430 204L277 364L411 506L40 756L24 655L275 491L154 365L289 222L21 53L18-34L430 204Z"  horiz-adv-x="458" vert-adv-y="1000"  />

      
      <glyph glyph-name="unie8" unicode="&#xe8;" d="M166 95L153 148L116 581L116 626L15 626L29 573L65 139L65 95L166 95Z"  horiz-adv-x="182" vert-adv-y="1000"  />

      
      <glyph glyph-name="uni0438" unicode="&#x0438;" d="M166 95L153 148L116 581L116 626L15 626L29 573L65 139L65 95L166 95Z"  horiz-adv-x="182" vert-adv-y="1000"  />

      
      <glyph glyph-name="unie9" unicode="&#xe9;" d="M166 95L153 148L116 581L116 626L15 626L29 573L65 139L65 95L166 95M112 700L101 784L70 779L47 778L-1 785L8 705L41 709L65 709L112 700Z"  horiz-adv-x="182" vert-adv-y="1000"  />

      
      <glyph glyph-name="uni0439" unicode="&#x0439;" d="M166 95L153 148L116 581L116 626L15 626L29 573L65 139L65 95L166 95M112 700L101 784L70 779L47 778L-1 785L8 705L41 709L65 709L112 700Z"  horiz-adv-x="182" vert-adv-y="1000"  />

      
      <glyph glyph-name="uniea" unicode="&#xea;" d="M498 53L457 81L184 384L410 641L452 669L376 746L347 701L126 453L126 650L139 702L25 702L37 650L37 107L25 55L139 55L126 107L126 316L392 19L421-23L498 53Z"  horiz-adv-x="519" vert-adv-y="1000"  />

      
      <glyph glyph-name="uni043A" unicode="&#x043A;" d="M498 53L457 81L184 384L410 641L452 669L376 746L347 701L126 453L126 650L139 702L25 702L37 650L37 107L25 55L139 55L126 107L126 316L392 19L421-23L498 53Z"  horiz-adv-x="519" vert-adv-y="1000"  />

      
      <glyph glyph-name="unieb" unicode="&#xeb;" d="M510 311L454 354L88 706L39 152L23 79L143 80L138 127L167 497L406 259L432 225L510 311Z"  horiz-adv-x="509" vert-adv-y="1000"  />

      
      <glyph glyph-name="uni043B" unicode="&#x043B;" d="M510 311L454 354L88 706L39 152L23 79L143 80L138 127L167 497L406 259L432 225L510 311Z"  horiz-adv-x="509" vert-adv-y="1000"  />

      
      <glyph glyph-name="uniec" unicode="&#xec;" d="M765 182L725 239L562 581L400 472L258 657L-9 237L76 197L101 248L262 504L382 348L525 449L643 200L653 143L765 182Z"  horiz-adv-x="749" vert-adv-y="1000"  />

      
      <glyph glyph-name="uni043C" unicode="&#x043C;" d="M765 182L725 239L562 581L400 472L258 657L-9 237L76 197L101 248L262 504L382 348L525 449L643 200L653 143L765 182Z"  horiz-adv-x="749" vert-adv-y="1000"  />

      
      <glyph glyph-name="unied" unicode="&#xed;" d="M515 674L401 674L413 624L407 468L149 424L161 612L174 665L72 665L72 621L41 98L27 47L128 47L128 91L143 331L403 374L391 103L378 50L492 50L480 101L502 622L515 674Z"  horiz-adv-x="544" vert-adv-y="1000"  />

      
      <glyph glyph-name="uni043D" unicode="&#x043D;" d="M515 674L401 674L413 624L407 468L149 424L161 612L174 665L72 665L72 621L41 98L27 47L128 47L128 91L143 331L403 374L391 103L378 50L492 50L480 101L502 622L515 674Z"  horiz-adv-x="544" vert-adv-y="1000"  />

      
      <glyph glyph-name="uniee" unicode="&#xee;" d="M512 404L246 678L17 404L287 87L512 404M406 396L289 222L124 401L250 541L406 396Z"  horiz-adv-x="524" vert-adv-y="1000"  />

      
      <glyph glyph-name="uni043E" unicode="&#x043E;" d="M512 404L246 678L17 404L287 87L512 404M406 396L289 222L124 401L250 541L406 396Z"  horiz-adv-x="524" vert-adv-y="1000"  />

      
      <glyph glyph-name="unief" unicode="&#xef;" d="M508 605L63 582L67 526L41 98L27 47L128 47L128 91L152 507L411 520L391 103L378 50L492 50L480 101L499 554L508 605Z"  horiz-adv-x="546" vert-adv-y="1000"  />

      
      <glyph glyph-name="uni043F" unicode="&#x043F;" d="M508 605L63 582L67 526L41 98L27 47L128 47L128 91L152 507L411 520L391 103L378 50L492 50L480 101L499 554L508 605Z"  horiz-adv-x="546" vert-adv-y="1000"  />

      
      <glyph glyph-name="unif0" unicode="&#xf0;" d="M452 446L58 712L31-41L140 0L124 53Q124 69 125.50 112.50Q127 156 129 212Q131 268 133.50 329Q136 390 138 440.50Q140 491 141.50 524Q143 557 143 557L316 431L148 257L210 192L452 446Z"  horiz-adv-x="425" vert-adv-y="1000"  />

      
      <glyph glyph-name="uni0440" unicode="&#x0440;" d="M452 446L58 712L31-41L140 0L124 53Q124 69 125.50 112.50Q127 156 129 212Q131 268 133.50 329Q136 390 138 440.50Q140 491 141.50 524Q143 557 143 557L316 431L148 257L210 192L452 446Z"  horiz-adv-x="425" vert-adv-y="1000"  />

      
      <glyph glyph-name="unif1" unicode="&#xf1;" d="M422 158L378 187L144 395L366 570L420 596L344 671L315 642L2 402L318 123L345 81L422 158Z"  horiz-adv-x="511" vert-adv-y="1000"  />

      
      <glyph glyph-name="uni0441" unicode="&#x0441;" d="M422 158L378 187L144 395L366 570L420 596L344 671L315 642L2 402L318 123L345 81L422 158Z"  horiz-adv-x="511" vert-adv-y="1000"  />

      
      <glyph glyph-name="unif2" unicode="&#xf2;" d="M415 632L338 608L68 569L0 566L44 483L97 502L198 515L239 112L239 68L340 68L327 121L284 526L358 538L398 532L415 632Z"  horiz-adv-x="425" vert-adv-y="1000"  />

      
      <glyph glyph-name="uni0442" unicode="&#x0442;" d="M415 632L338 608L68 569L0 566L44 483L97 502L198 515L239 112L239 68L340 68L327 121L284 526L358 538L398 532L415 632Z"  horiz-adv-x="425" vert-adv-y="1000"  />

      
      <glyph glyph-name="unif3" unicode="&#xf3;" d="M525 587L420 640L408 591L299 405L121 569L83 623L-2 542L47 511L249 323L156 141L120 96L231 47L241 108L485 546L525 587Z"  horiz-adv-x="527" vert-adv-y="1000"  />

      
      <glyph glyph-name="uni0443" unicode="&#x0443;" d="M525 587L420 640L408 591L299 405L121 569L83 623L-2 542L47 511L249 323L156 141L120 96L231 47L241 108L485 546L525 587Z"  horiz-adv-x="527" vert-adv-y="1000"  />

      
      <glyph glyph-name="unif4" unicode="&#xf4;" d="M634 373L352 709L18 455L279 209L276 114L268 58L373 52L369 117L370 214L634 373M293 561L285 317L143 446L293 561M504 384L372 315L377 547L504 384Z"  horiz-adv-x="651" vert-adv-y="1000"  />

      
      <glyph glyph-name="uni0444" unicode="&#x0444;" d="M634 373L352 709L18 455L279 209L276 114L268 58L373 52L369 117L370 214L634 373M293 561L285 317L143 446L293 561M504 384L372 315L377 547L504 384Z"  horiz-adv-x="651" vert-adv-y="1000"  />

      
      <glyph glyph-name="unif5" unicode="&#xf5;" d="M533 161L493 187L329 355L437 537L478 578L377 638L360 581L262 416L120 557L87 606L12 533L48 506L214 334L91 131L50 91L156 38L168 87L280 273L421 135L456 81L533 161Z"  horiz-adv-x="560" vert-adv-y="1000"  />

      
      <glyph glyph-name="uni0445" unicode="&#x0445;" d="M533 161L493 187L329 355L437 537L478 578L377 638L360 581L262 416L120 557L87 606L12 533L48 506L214 334L91 131L50 91L156 38L168 87L280 273L421 135L456 81L533 161Z"  horiz-adv-x="560" vert-adv-y="1000"  />

      
      <glyph glyph-name="unif6" unicode="&#xf6;" d="M551 682L436 682L450 630L450 326L443 324L282 172L131 672L131 710L13 710L44 648L239 10L441 202L441 177L428 125L544 125L530 175L530 630L551 682Z"  horiz-adv-x="573" vert-adv-y="1000"  />

      
      <glyph glyph-name="uni0446" unicode="&#x0446;" d="M551 682L436 682L450 630L450 326L443 324L282 172L131 672L131 710L13 710L44 648L239 10L441 202L441 177L428 125L544 125L530 175L530 630L551 682Z"  horiz-adv-x="573" vert-adv-y="1000"  />

      
      <glyph glyph-name="unif7" unicode="&#xf7;" d="M430 674L316 674L328 624L326 426L119 411L116 624L129 677L12 677L27 633L36 318L194 330L196 106L183 53L303 53L291 104L287 343L409 346L417 622L430 674Z"  horiz-adv-x="440" vert-adv-y="1000"  />

      
      <glyph glyph-name="uni0447" unicode="&#x0447;" d="M430 674L316 674L328 624L326 426L119 411L116 624L129 677L12 677L27 633L36 318L194 330L196 106L183 53L303 53L291 104L287 343L409 346L417 622L430 674Z"  horiz-adv-x="440" vert-adv-y="1000"  />

      
      <glyph glyph-name="unif8" unicode="&#xf8;" d="M722 442L670 628L681 680L566 680L590 628L629 477L622 474L497 359L413 628L413 680L295 680L326 628L424 298L415 296L282 172L131 640L131 678L13 678L44 616L239 10L314 91L666 403L722 442Z"  horiz-adv-x="736" vert-adv-y="1000"  />

      
      <glyph glyph-name="uni0448" unicode="&#x0448;" d="M722 442L670 628L681 680L566 680L590 628L629 477L622 474L497 359L413 628L413 680L295 680L326 628L424 298L415 296L282 172L131 640L131 678L13 678L44 616L239 10L314 91L666 403L722 442Z"  horiz-adv-x="736" vert-adv-y="1000"  />

      
      <glyph glyph-name="unif9" unicode="&#xf9;" d="M731 680L616 680L630 628L630 480L623 477L497 359L413 628L413 680L295 680L326 628L424 298L415 296L282 172L131 640L131 678L13 678L44 616L239 10L314 91L630 370L630 171L608 119L724 119L710 169L710 628L731 680Z"  horiz-adv-x="758" vert-adv-y="1000"  />

      
      <glyph glyph-name="uni0449" unicode="&#x0449;" d="M731 680L616 680L630 628L630 480L623 477L497 359L413 628L413 680L295 680L326 628L424 298L415 296L282 172L131 640L131 678L13 678L44 616L239 10L314 91L630 370L630 171L608 119L724 119L710 169L710 628L731 680Z"  horiz-adv-x="758" vert-adv-y="1000"  />

      
      <glyph glyph-name="unifa" unicode="&#xfa;" d="M524 305L294 453L247 485L191 430L146 661L-54 598L-35 518L13 537L76 556L193 0L524 305M385 289L251 172L195 413L385 289Z"  horiz-adv-x="530" vert-adv-y="1000"  />

      
      <glyph glyph-name="uni044A" unicode="&#x044A;" d="M524 305L294 453L247 485L191 430L146 661L-54 598L-35 518L13 537L76 556L193 0L524 305M385 289L251 172L195 413L385 289Z"  horiz-adv-x="530" vert-adv-y="1000"  />

      
      <glyph glyph-name="unifb" unicode="&#xfb;" d="M494 305L264 453L224 503L161 430L127 599L127 649L11 636L38 586L163 0L494 305M650 104L637 157L600 590L600 635L499 635L513 582L549 148L549 104L650 104M355 289L221 172L165 413L355 289Z"  horiz-adv-x="687" vert-adv-y="1000"  />

      
      <glyph glyph-name="uni044B" unicode="&#x044B;" d="M494 305L264 453L224 503L161 430L127 599L127 649L11 636L38 586L163 0L494 305M650 104L637 157L600 590L600 635L499 635L513 582L549 148L549 104L650 104M355 289L221 172L165 413L355 289Z"  horiz-adv-x="687" vert-adv-y="1000"  />

      
      <glyph glyph-name="unifc" unicode="&#xfc;" d="M494 305L264 453L224 503L161 430L127 599L127 649L11 636L38 586L163 0L494 305M355 289L221 172L165 413L355 289Z"  horiz-adv-x="475" vert-adv-y="1000"  />

      
      <glyph glyph-name="uni044C" unicode="&#x044C;" d="M494 305L264 453L224 503L161 430L127 599L127 649L11 636L38 586L163 0L494 305M355 289L221 172L165 413L355 289Z"  horiz-adv-x="475" vert-adv-y="1000"  />

      
      <glyph glyph-name="unifd" unicode="&#xfd;" d="M496 382L218 677L189 716L107 631L157 603L328 425L59 427L7 436L7 333L59 338L327 342L150 170L104 143L185 65L216 105L496 382Z"  horiz-adv-x="485" vert-adv-y="1000"  />

      
      <glyph glyph-name="uni044D" unicode="&#x044D;" d="M496 382L218 677L189 716L107 631L157 603L328 425L59 427L7 436L7 333L59 338L327 342L150 170L104 143L185 65L216 105L496 382Z"  horiz-adv-x="485" vert-adv-y="1000"  />

      
      <glyph glyph-name="unife" unicode="&#xfe;" d="M745 417L455 719L214 447L129 444L116 581L120 633L15 626L29 573L65 139L65 95L166 95L153 148L135 354L214 357L510 73L745 417M629 407L500 212L300 400L456 584L629 407Z"  horiz-adv-x="728" vert-adv-y="1000"  />

      
      <glyph glyph-name="uni044E" unicode="&#x044E;" d="M745 417L455 719L214 447L129 444L116 581L120 633L15 626L29 573L65 139L65 95L166 95L153 148L135 354L214 357L510 73L745 417M629 407L500 212L300 400L456 584L629 407Z"  horiz-adv-x="728" vert-adv-y="1000"  />

      
      <glyph glyph-name="uniff" unicode="&#xff;" d="M443 716L48 527L202 336L64 162L15 121L97 61L125 108L315 334L178 499L347 579L322 77L313 29L420 28L414 75L443 716Z"  horiz-adv-x="536" vert-adv-y="1000"  />

      
      <glyph glyph-name="uni044F" unicode="&#x044F;" d="M443 716L48 527L202 336L64 162L15 121L97 61L125 108L315 334L178 499L347 579L322 77L313 29L420 28L414 75L443 716Z"  horiz-adv-x="536" vert-adv-y="1000"  />

      
      <glyph glyph-name="unib8" unicode="&#xb8;" d="M428 74L428 179L376 176L142 178L136 312L291 315L343 303L343 417L291 404L131 394L124 523L363 565L413 567L399 667L344 650L28 585L49 148L35 98L150 98L376 86L428 74M314 714L303 787L254 780L213 779L224 701L257 708L281 713L314 714M153 697L143 770L115 766L93 763L53 762L64 684L97 691L121 696L153 697Z"  horiz-adv-x="435" vert-adv-y="1000"  />

      
      <glyph glyph-name="uni0451" unicode="&#x0451;" d="M428 74L428 179L376 176L142 178L136 312L291 315L343 303L343 417L291 404L131 394L124 523L363 565L413 567L399 667L344 650L28 585L49 148L35 98L150 98L376 86L428 74M314 714L303 787L254 780L213 779L224 701L257 708L281 713L314 714M153 697L143 770L115 766L93 763L53 762L64 684L97 691L121 696L153 697Z"  horiz-adv-x="435" vert-adv-y="1000"  />

      
      <glyph glyph-name="unia8" unicode="&#xa8;" d="M435 657L358 734L330 691L2 384Q75 306 156 216Q237 126 325 30L353-13L430 64L389 91L156 342L345 336L397 324L397 438L345 425L160 414L392 628L435 657M258 719L209 775L188 756L172 742L138 719L190 659L214 683L231 701L258 719M127 610L78 666L57 647L41 633L7 610L59 551L100 592L127 610Z"  horiz-adv-x="460" vert-adv-y="1000"  />

      
      <glyph glyph-name="uni0401" unicode="&#x0401;" d="M435 657L358 734L330 691L2 384Q75 306 156 216Q237 126 325 30L353-13L430 64L389 91L156 342L345 336L397 324L397 438L345 425L160 414L392 628L435 657M258 719L209 775L188 756L172 742L138 719L190 659L214 683L231 701L258 719M127 610L78 666L57 647L41 633L7 610L59 551L100 592L127 610Z"  horiz-adv-x="460" vert-adv-y="1000"  />

      

  </font>
</defs>
</svg>
